<?xml version="1.0" encoding="UTF-8"?>
<svg id="blend" xmlns="http://www.w3.org/2000/svg" viewBox="0 0 128 128">
  <defs>
    <style>
      .cls-1 {
        fill: #fff;
      }

      .cls-2 {
        fill: #b2b2b2;
      }
    </style>
  </defs>
  <path class="cls-2" d="M60.26,113.38H18.85V45.72l1.24-1.24h28.02v-28.02l1.24-1.24h57.66v43.31c1.98,1.29,3.98,2.54,6,3.75V9.21H46.87L12.85,43.24v76.15h55.34c-3.02-1.49-5.77-3.4-7.93-6Z"/>
  <g>
    <path class="cls-1" d="M76.44,86.3c.17-3.07,1.68-5.79,3.95-7.71,2.23-1.89,5.22-3.04,8.51-3.04s6.26,1.15,8.49,3.04c2.28,1.92,3.77,4.64,3.95,7.71.17,3.16-1.1,6.1-3.32,8.28-2.28,2.21-5.5,3.61-9.12,3.61s-6.86-1.39-9.12-3.61c-2.23-2.18-3.5-5.11-3.32-8.26l-.02-.02Z"/>
    <path class="cls-1" d="M56.92,92.81c.02,1.2.4,3.55.98,5.37,1.21,3.87,3.27,7.45,6.12,10.59,2.93,3.24,6.54,5.84,10.7,7.69,4.37,1.94,9.12,2.93,14.05,2.93,4.93,0,9.68-1.01,14.05-2.98,4.16-1.87,7.77-4.47,10.7-7.73,2.86-3.17,4.91-6.75,6.12-10.62.61-1.95,1-3.94,1.15-5.92.15-1.95.09-3.92-.19-5.89-.54-3.82-1.87-7.42-3.9-10.67-1.85-3.01-4.26-5.63-7.12-7.84h0s-28.79-22.12-28.79-22.12c-.03-.02-.05-.04-.07-.06-1.89-1.45-5.07-1.45-7.14,0-2.1,1.47-2.34,3.9-.47,5.43h0s12.02,9.78,12.02,9.78l-36.59.04h-.05c-3.03,0-5.94,1.98-6.51,4.5-.59,2.55,1.46,4.68,4.62,4.68h0s18.54-.02,18.54-.02l-33.18,25.37s-.09.06-.13.09c-3.12,2.39-4.13,6.38-2.16,8.88,2,2.55,6.25,2.57,9.4.01l18.05-14.8s-.26,2-.24,3.19l.06.07ZM103.43,99.49c-3.72,3.79-8.94,5.95-14.57,5.95-5.64,0-10.86-2.11-14.59-5.9-1.82-1.85-3.16-3.97-3.98-6.23-.81-2.23-1.12-4.59-.91-6.96.2-2.33.89-4.55,2-6.55,1.09-1.97,2.59-3.76,4.42-5.27,3.63-2.94,8.23-4.55,13.04-4.55,4.83,0,9.43,1.58,13.06,4.52,1.84,1.5,3.33,3.29,4.42,5.25,1.11,2,1.81,4.21,2,6.55.2,2.37-.11,4.73-.92,6.96-.83,2.28-2.16,4.39-3.98,6.25v-.02Z"/>
  </g>
</svg>