<?xml version="1.0" encoding="UTF-8"?>
<svg id="engine" xmlns="http://www.w3.org/2000/svg" viewBox="0 0 128 128">
  <defs>
    <style>
      .cls-1 {
        fill: #fff;
      }
    </style>
  </defs>
  <path class="cls-1" d="M109.38,51.88c-1.07-3.96-2.64-7.71-4.64-11.18l4.09-8.7-12.71-12.71-8.7,4.09c-3.47-2-7.22-3.57-11.18-4.64l-3.26-9.04h-17.97l-3.26,9.04c-3.96,1.07-7.71,2.64-11.18,4.64l-8.7-4.09-12.71,12.71,4.09,8.7c-2,3.47-3.57,7.22-4.64,11.18l-9.04,3.26v17.97l9.04,3.26c1.07,3.96,2.64,7.71,4.64,11.18l-4.09,8.7,12.71,12.71,8.7-4.09c3.47,2,7.22,3.57,11.18,4.64l3.26,9.04h17.97l3.26-9.04c3.96-1.07,7.71-2.64,11.18-4.64l8.7,4.09,12.71-12.71-4.09-8.7c2-3.47,3.57-7.22,4.64-11.18l9.04-3.26v-17.97l-9.04-3.26ZM64,98.25c-18.85,0-34.13-15.28-34.13-34.13s15.28-34.13,34.13-34.13,34.13,15.28,34.13,34.13-15.28,34.13-34.13,34.13Z"/>
  <circle class="cls-1" cx="64" cy="64.12" r="19.43"/>
</svg>