<?xml version="1.0" encoding="UTF-8"?>
<svg id="folder" xmlns="http://www.w3.org/2000/svg" viewBox="0 0 128 128">
  <defs>
    <style>
      .cls-1 {
        fill: #fff;
      }
    </style>
  </defs>
  <path class="cls-1" d="M119.01,52.95h-18.44v-8.44c0-4.66-3.78-8.44-8.44-8.44h-54.62l-2.01-5.59c-1.19-3.9-4.79-6.56-8.86-6.56H4.47v81.15h96.1l22.75-45.12c1.62-3.22-.72-7.01-4.32-7.01ZM10.47,42.64v-12.72h16.17c1.44,0,2.7.93,3.12,2.31.03.09.06.19.09.28l2.01,5.59c.86,2.38,3.12,3.97,5.64,3.97h54.62c1.34,0,2.44,1.09,2.44,2.44v8.44h-60.84c-1.83,0-3.49,1.03-4.32,2.66l-18.95,37.57v-50.54ZM94.57,99.08H14.21l20.24-40.13h82.66l-16.54,32.8-3,5.95-.69,1.38h-2.31Z"/>
</svg>