<?xml version="1.0" encoding="UTF-8"?>
<svg id="frame" xmlns="http://www.w3.org/2000/svg" viewBox="0 0 128 128">
  <defs>
    <style>
      .cls-1 {
        fill: #fff;
      }

      .cls-2 {
        fill: gray;
      }
    </style>
  </defs>
  <path class="cls-1" d="M63.12,110.45c-2.57,0-4.98-1-6.79-2.81l-11.59-11.59c-1.82-1.81-2.81-4.23-2.81-6.79s1-4.98,2.81-6.79l11.59-11.59c1.81-1.81,4.23-2.81,6.79-2.81s4.98,1,6.79,2.81l11.59,11.59c1.82,1.81,2.81,4.23,2.81,6.79s-1,4.98-2.81,6.79l-11.59,11.59c-1.81,1.81-4.23,2.81-6.79,2.81ZM63.12,72.05c-1.5,0-2.91.58-3.97,1.64l-11.59,11.59c-1.06,1.06-1.64,2.47-1.64,3.97s.58,2.91,1.64,3.97l11.59,11.59c1.06,1.06,2.47,1.64,3.97,1.64s2.91-.58,3.97-1.64l11.59-11.59c1.06-1.06,1.64-2.47,1.64-3.97s-.58-2.91-1.64-3.97h0s-11.59-11.59-11.59-11.59c-1.06-1.06-2.47-1.64-3.97-1.64Z"/>
  <path class="cls-2" d="M34.23,49.92h59.54l-6.64-6.64c-1.82-1.81-2.81-4.23-2.81-6.79s1-4.98,2.81-6.79l6.64-6.64h-59.54l6.64,6.64c1.82,1.81,2.81,4.23,2.81,6.79s-1,4.98-2.81,6.79l-6.64,6.64Z"/>
  <path class="cls-1" d="M38.04,32.52h0s-9.47-9.47-9.47-9.47l-2.12-2.12c-1.06-1.06-2.47-1.64-3.97-1.64s-2.91.58-3.97,1.64l-11.59,11.59c-1.06,1.06-1.64,2.47-1.64,3.97s.58,2.91,1.64,3.97l11.59,11.59c1.06,1.06,2.47,1.64,3.97,1.64s2.91-.58,3.97-1.64l2.12-2.12,9.47-9.47c1.06-1.06,1.64-2.47,1.64-3.97s-.58-2.91-1.64-3.97Z"/>
  <path class="cls-1" d="M121.07,32.52h0s-11.59-11.59-11.59-11.59c-1.06-1.06-2.47-1.64-3.97-1.64s-2.91.58-3.97,1.64l-2.12,2.12-9.47,9.47c-1.06,1.06-1.64,2.47-1.64,3.97s.58,2.91,1.64,3.97l9.47,9.47,2.12,2.12c1.06,1.06,2.47,1.64,3.97,1.64s2.91-.58,3.97-1.64l11.59-11.59c1.06-1.06,1.64-2.47,1.64-3.97s-.58-2.91-1.64-3.97Z"/>
</svg>