<?xml version="1.0" encoding="UTF-8"?>
<svg id="logo" xmlns="http://www.w3.org/2000/svg" viewBox="0 0 128 128">
  <defs>
    <style>
      .cls-1 {
        fill: #fff;
      }
    </style>
  </defs>
  <path class="cls-1" d="M66.21,69.18c.22-3.98,2.17-7.5,5.12-9.98,2.88-2.44,6.76-3.94,11.01-3.94s8.11,1.49,10.99,3.94c2.95,2.48,4.88,6,5.12,9.98.22,4.08-1.42,7.9-4.3,10.72-2.95,2.86-7.12,4.67-11.81,4.67s-8.89-1.8-11.81-4.67c-2.88-2.82-4.53-6.61-4.3-10.7l-.02-.02Z"/>
  <path class="cls-1" d="M40.94,77.6c.03,1.56.52,4.59,1.27,6.95,1.57,5.01,4.23,9.64,7.92,13.71,3.79,4.19,8.46,7.56,13.85,9.96,5.66,2.51,11.81,3.79,18.19,3.79,6.38,0,12.53-1.31,18.19-3.85,5.39-2.42,10.06-5.79,13.85-10,3.71-4.11,6.36-8.74,7.92-13.75.79-2.53,1.29-5.1,1.49-7.66.2-2.53.11-5.07-.25-7.62-.7-4.95-2.42-9.6-5.05-13.81-2.4-3.9-5.52-7.29-9.22-10.15h0s-37.27-28.64-37.27-28.64c-.03-.03-.06-.05-.1-.08-2.44-1.88-6.57-1.87-9.24.01-2.72,1.9-3.03,5.05-.61,7.03h-.01s15.56,12.66,15.56,12.66l-47.37.05h-.06c-3.92,0-7.69,2.57-8.42,5.83-.77,3.31,1.89,6.06,5.98,6.06h0s24-.03,24-.03L8.61,80.9c-.05.04-.11.08-.16.12-4.04,3.1-5.35,8.25-2.8,11.5,2.59,3.31,8.09,3.33,12.17.02l23.37-19.16s-.34,2.59-.31,4.13l.07.09ZM101.16,86.25c-4.82,4.91-11.58,7.71-18.87,7.71-7.31.01-14.06-2.74-18.89-7.64-2.36-2.4-4.08-5.14-5.16-8.06-1.05-2.88-1.45-5.94-1.18-9.01.25-3.01,1.15-5.9,2.59-8.49,1.41-2.55,3.35-4.86,5.73-6.82,4.7-3.81,10.65-5.9,16.89-5.9,6.25,0,12.21,2.04,16.91,5.85,2.38,1.95,4.32,4.25,5.73,6.8,1.44,2.59,2.34,5.45,2.59,8.49.27,3.07-.14,6.13-1.19,9.01-1.07,2.95-2.8,5.68-5.16,8.09v-.02Z"/>
</svg>