<?xml version="1.0" encoding="UTF-8"?>
<svg id="output" xmlns="http://www.w3.org/2000/svg" viewBox="0 0 128 128">
  <defs>
    <style>
      .cls-1 {
        fill: #fff;
      }

      .cls-2 {
        fill: #bcbcbc;
      }
    </style>
  </defs>
  <path class="cls-1" d="M110.45,10.08H17.55c-5.04,0-9.15,4.12-9.15,9.15v36.79c0,5.04,4.12,9.15,9.15,9.15h5.12v-18.81h-7.9v-6.38h98.44v6.38h-6.89v18.81h4.12c5.04,0,9.15-4.12,9.15-9.15V19.23c0-5.04-4.12-9.15-9.15-9.15Z"/>
  <path class="cls-2" d="M26.2,46.36v73.57h76.6V46.36H26.2ZM33.53,112.94l24.52-48.06,24.52,48.06h-49.05ZM82.14,74.92c-5.47,0-9.91-4.44-9.91-9.91s4.44-9.91,9.91-9.91,9.91,4.44,9.91,9.91-4.44,9.91-9.91,9.91Z"/>
</svg>