<?xml version="1.0" encoding="UTF-8"?>
<svg id="render" xmlns="http://www.w3.org/2000/svg" viewBox="0 0 128 128">
  <defs>
    <style>
      .cls-1 {
        fill: #fff;
      }
    </style>
  </defs>
  <rect class="cls-1" x="91.12" y="21.02" width="22.98" height="6.76" rx="3.34" ry="3.34"/>
  <path class="cls-1" d="M116.52,30.83h-39.55l-4.88-14.35c-.79-2.33-2.98-3.9-5.44-3.9h-31.17c-2.46,0-4.65,1.57-5.44,3.9l-4.88,14.35h-9.98c-3.08,0-5.61,2.52-5.61,5.61v67.64c0,3.08,2.52,5.61,5.61,5.61h101.34c3.08,0,5.61-2.52,5.61-5.61V36.43c0-3.08-2.52-5.61-5.61-5.61ZM35.81,25.33c0-2.37,1.94-4.31,4.31-4.31h21.89c2.37,0,4.31,1.94,4.31,4.31v12.11c0,2.37-1.94,4.31-4.31,4.31h-21.89c-2.37,0-4.31-1.94-4.31-4.31v-12.11ZM94.67,97.17c0,1.49-1.22,2.7-2.7,2.7H18.96c-1.49,0-2.7-1.22-2.7-2.7v-45.56c0-1.49,1.22-2.7,2.7-2.7h73.01c1.49,0,2.7,1.22,2.7,2.7v45.56ZM107.93,81.78c-3.36,0-6.08-2.72-6.08-6.08s2.72-6.08,6.08-6.08,6.08,2.72,6.08,6.08-2.72,6.08-6.08,6.08ZM107.93,62.51c-3.36,0-6.08-2.72-6.08-6.08s2.72-6.08,6.08-6.08,6.08,2.72,6.08,6.08-2.72,6.08-6.08,6.08Z"/>
</svg>