<?xml version="1.0" encoding="UTF-8"?>
<svg id="Resolution" xmlns="http://www.w3.org/2000/svg" viewBox="0 0 128 128">
  <defs>
    <style>
      .cls-1 {
        fill: #fff;
      }
    </style>
  </defs>
  <path class="cls-1" d="M89.28,22.47c-8.82,0-15.97,7.15-15.97,15.97s7.15,15.97,15.97,15.97,15.97-7.15,15.97-15.97-7.15-15.97-15.97-15.97Z"/>
  <path class="cls-1" d="M108.97,8.34H19.15c-6.12,0-11.1,4.98-11.1,11.1v89.81c0,6.12,4.98,11.1,11.1,11.1h89.81c6.12,0,11.1-4.98,11.1-11.1V19.44c0-6.12-4.98-11.1-11.1-11.1ZM114.07,109.25c0,2.81-2.29,5.1-5.1,5.1h-19.94L51.8,41.39,15.41,112.69c-.84-.91-1.36-2.11-1.36-3.44V19.44c0-2.81,2.29-5.1,5.1-5.1h89.81c2.81,0,5.1,2.29,5.1,5.1v89.81Z"/>
</svg>