<?xml version="1.0" encoding="utf-8"?>
<!-- Generator: Adobe Illustrator 28.3.0, SVG Export Plug-In . SVG Version: 6.00 Build 0)  -->
<svg version="1.1" xmlns="http://www.w3.org/2000/svg" xmlns:xlink="http://www.w3.org/1999/xlink" x="0px" y="0px"
	 viewBox="0 0 256 256" style="enable-background:new 0 0 256 256;" xml:space="preserve">
<style type="text/css">
	.st0{fill:#292E34;}
	.st1{fill:#DB4B00;}
	.st2{fill:#EA7601;}
	.st3{fill:#FBBD87;}
	.st4{fill:#FFFFFF;}
</style>
<g id="圖層_1">
</g>
<g id="圖層_2">
	<path class="st0" d="M195.58,256H60.42C27.19,256,0,228.81,0,195.58V60.42C0,27.19,27.19,0,60.42,0h135.16
		C228.81,0,256,27.19,256,60.42v135.16C256,228.81,228.81,256,195.58,256z"/>
</g>
<g id="圖層_3">
	<path class="st1" d="M34.99,113.06c0-13.13,26.82-48.61,67.33-48.61c34.92,0,31.29,0,50.85,0s65.94,19.56,65.94,54.2
		s-48.05,51.41-48.05,51.41l54.48,51.97H175.8l-32.41-36.88c0,0-8.94-8.38-25.98-8.38s-27.94,9.22-27.94,22.35
		c0,13.13,1.96,22.91-11.18,22.91s-13.13,0-24.87,0s-17.04-5.03-17.04-13.41c0-32.41,31.01-58.95,65.94-58.95
		c18.44,0,27.66,0,38.83,0s38.83-6.71,38.83-31.85s-24.03-27.1-33.25-27.1s-39.67,0-48.61,0s-24.31,6.98-31.29,22.63
		s-17.32,6.98-17.32,6.98S42.46,117.38,34.99,113.06z"/>
	<path class="st2" d="M34.99,99.84c0-13.13,26.82-48.61,67.33-48.61c34.92,0,31.29,0,50.85,0s65.94,19.56,65.94,54.2
		s-48.05,51.41-48.05,51.41l54.48,51.97H175.8l-32.41-36.88c0,0-8.94-8.38-25.98-8.38s-27.94,9.22-27.94,22.35
		s1.96,22.91-11.18,22.91s-13.13,0-24.87,0s-17.04-5.03-17.04-13.41c0-32.41,31.01-58.95,65.94-58.95c18.44,0,27.66,0,38.83,0
		s38.83-6.71,38.83-31.85s-24.03-27.1-33.25-27.1s-39.67,0-48.61,0s-24.31,6.98-31.29,22.63s-17.32,6.98-17.32,6.98
		S42.46,104.16,34.99,99.84z"/>
	<path class="st3" d="M34.99,86.61C34.99,73.48,61.81,38,102.33,38c34.92,0,31.29,0,50.85,0s65.94,19.56,65.94,54.2
		s-48.05,51.41-48.05,51.41l54.48,51.97H175.8l-32.41-36.88c0,0-8.94-8.38-25.98-8.38s-27.94,9.22-27.94,22.35
		c0,13.13,1.96,22.91-11.18,22.91s-13.13,0-24.87,0s-17.04-5.03-17.04-13.41c0-32.41,31.01-58.95,65.94-58.95
		c18.44,0,27.66,0,38.83,0s38.83-6.71,38.83-31.85s-24.03-27.1-33.25-27.1s-39.67,0-48.61,0s-24.31,6.98-31.29,22.63
		s-17.32,6.98-17.32,6.98S42.46,90.93,34.99,86.61z"/>
	<path class="st4" d="M34.99,73.39c0-13.13,26.82-48.61,67.33-48.61c34.92,0,31.29,0,50.85,0s65.94,19.56,65.94,54.2
		s-48.05,51.41-48.05,51.41l54.48,51.97H175.8l-32.41-36.88c0,0-8.94-8.38-25.98-8.38s-27.94,9.22-27.94,22.35
		s1.96,22.91-11.18,22.91s-13.13,0-24.87,0s-17.04-5.03-17.04-13.41c0-32.41,31.01-58.95,65.94-58.95c18.44,0,27.66,0,38.83,0
		s38.83-6.71,38.83-31.85s-24.03-27.1-33.25-27.1s-39.67,0-48.61,0s-24.31,6.98-31.29,22.63s-17.32,6.98-17.32,6.98
		S42.46,77.71,34.99,73.39z"/>
</g>
</svg>
