<?xml version="1.0" encoding="UTF-8"?>
<svg id="samples" xmlns="http://www.w3.org/2000/svg" viewBox="0 0 128 128">
  <defs>
    <style>
      .cls-1 {
        fill: #fff;
      }
    </style>
  </defs>
  <path class="cls-1" d="M95.43,71.4l-8.45-8.45,27.87-27.87c5.34-5.34,5.34-14.08,0-19.43l-3.22-3.22c-5.34-5.34-14.08-5.34-19.43,0l-27.87,27.87-8.45-8.45c-1.04-1.04-2.75-1.04-3.79,0l-1.38,1.38c-1.04,1.04-1.04,2.75,0,3.79l8.91,8.91-31.05,31.05c-1.33,1.33-2.34,2.97-2.91,4.74l-2.88,8.94c-.38,1.19-1.06,2.29-1.96,3.19l-11.12,11.12c-.76.76-.76,1.99,0,2.75s1.99.76,2.75,0l11.12-11.12c1.33-1.33,2.34-2.97,2.91-4.74l2.88-8.94c.38-1.19,1.06-2.29,1.96-3.19l31.05-31.05,16.1,16.1-31.05,31.05c-.9.9-2,1.58-3.19,1.96l-8.94,2.88c-1.77.57-3.41,1.58-4.74,2.91l-11.12,11.12c-.76.76-.76,1.99,0,2.75s1.99.76,2.75,0l11.12-11.12c.9-.9,2-1.57,3.19-1.96l8.94-2.88c1.77-.57,3.41-1.58,4.74-2.91l31.05-31.05,9.03,9.03c1.04,1.04,2.75,1.04,3.79,0l1.38-1.38c1.04-1.04,1.04-2.75,0-3.79Z"/>
</svg>