<?xml version="1.0" encoding="UTF-8"?>
<svg id="start" xmlns="http://www.w3.org/2000/svg" viewBox="0 0 128 128">
  <defs>
    <style>
      .cls-1 {
        fill: #fff;
      }
    </style>
  </defs>
  <path class="cls-1" d="M121.38,108.8c-4.81-4.12-9.58-7.38-14.23-9.99-1.55,1.89-3.32,3.58-5.27,5.13-1.66,1.77-3.4,3.45-5.22,5.05,5.02,2.41,10.31,5.74,15.7,10.35,1.31,1.12,2.91,1.67,4.51,1.67,1.96,0,3.9-.82,5.27-2.43,2.49-2.91,2.15-7.29-.76-9.78Z"/>
  <path class="cls-1" d="M58.8,7.69C28.64,7.69,4.2,32.13,4.2,62.29s24.44,54.6,54.6,54.6,54.6-24.44,54.6-54.6S88.95,7.69,58.8,7.69ZM58.8,13.49c9.87,0,17.88,8.01,17.88,17.88s-8.01,17.88-17.88,17.88-17.88-8.01-17.88-17.88,8.01-17.88,17.88-17.88ZM67.12,62.29c0,4.6-3.73,8.32-8.32,8.32s-8.32-3.73-8.32-8.32,3.73-8.32,8.32-8.32,8.32,3.73,8.32,8.32ZM27.88,80.17c-9.87,0-17.88-8.01-17.88-17.88s8.01-17.88,17.88-17.88,17.88,8.01,17.88,17.88-8.01,17.88-17.88,17.88ZM58.8,111.09c-9.87,0-17.88-8.01-17.88-17.88s8.01-17.88,17.88-17.88,17.88,8.01,17.88,17.88-8.01,17.88-17.88,17.88ZM89.71,80.17c-9.87,0-17.88-8.01-17.88-17.88s8.01-17.88,17.88-17.88,17.88,8.01,17.88,17.88-8.01,17.88-17.88,17.88Z"/>
</svg>